<svg xmlns="http://www.w3.org/2000/svg" viewBox="0 0 223.64 229.47"><defs><style>.cls-1{fill:#802929;}.cls-2{fill:#fff;}</style></defs><title>ArtstationFabLoShrunkR</title><g id="Background_copy_2" data-name="Background copy 2"><ellipse class="cls-1" cx="111.82" cy="114.73" rx="111.82" ry="114.73"/></g><g id="base"><path class="cls-2" d="M80.86,154.13l8.28,14.31h0A9.9,9.9,0,0,0,98,173.89h55l-11.41-19.76Z" transform="translate(-18.05 -16.02)"/><path class="cls-2" d="M178.89,154.23a9.86,9.86,0,0,0-1.58-5.37l-32.21-56a9.9,9.9,0,0,0-8.75-5.27h-17l49.75,86.19,7.84-13.58C178.47,157.62,178.89,156.47,178.89,154.23Z" transform="translate(-18.05 -16.02)"/><polygon class="cls-2" points="115.38 124.07 93.15 85.56 70.91 124.07 115.38 124.07"/></g></svg>