<svg xmlns="http://www.w3.org/2000/svg" viewBox="0 0 223.64 229.47"><defs><style>.cls-1,.cls-3{fill:#802929;}.cls-2{fill:#fff;}.cls-3{stroke:#802929;stroke-miterlimit:10;stroke-width:0.53px;}</style></defs><title>mailFabLoShrunkR</title><g id="Background_copy_2" data-name="Background copy 2"><ellipse class="cls-1" cx="111.82" cy="114.73" rx="111.82" ry="114.73"/></g><g id="base"><rect class="cls-2" x="61.8" y="77.2" width="98.75" height="73.37" rx="8.53"/></g><g id="Fold_Left_copy" data-name="Fold_Left copy"><polygon class="cls-3" points="111.08 123.2 58.31 85.71 58.3 82.96 58.42 82.56 58.57 82.11 58.7 81.8 58.83 81.44 59.1 80.92 59.51 80.21 59.74 79.84 60.2 79.24 60.65 78.78 61.06 78.42 61.49 78.1 61.95 77.8 62.4 77.55 62.91 77.3 63.33 77.14 63.78 76.99 64.18 76.89 64.71 76.79 65.17 76.73 67.45 76.7 110.86 107.67 111.08 123.2"/></g><g id="Fold_right_copy" data-name="Fold_right copy"><polygon class="cls-3" points="110.89 107.21 111.1 123.21 164.28 84.53 164.3 82.85 164.29 82.67 164.29 82.49 164.28 82.33 164.27 82.11 164.22 81.64 164.12 81.12 163.97 80.56 163.77 79.97 163.6 79.61 163.36 79.14 163.03 78.65 162.52 77.97 162.15 77.54 161.77 77.16 161.22 76.75 160.79 76.46 160.03 76.03 159.62 75.85 158.91 75.6 158.4 75.44 157.62 75.34 154.87 75.3 110.89 107.21"/></g></svg>